<svg xmlns="http://www.w3.org/2000/svg" viewBox="0 0 72.82 68.9"><defs><style>.cls-1{fill:#ee731b;}.cls-1,.cls-2,.cls-3{fill-rule:evenodd;}.cls-2{fill:#0e9980;}.cls-3,.cls-4{fill:#e62d52;}</style></defs><title>favicon-Ipedis</title><g id="Layer_2" data-name="Layer 2"><g id="Layer_1-2" data-name="Layer 1"><path class="cls-1" d="M34.71,48.25a23.85,23.85,0,0,0-7.17,1c-7.45,1.44-26,4.73-27.21,5.14s.72,1.31,6.31,4.16S24.42,68.25,26.85,68.8,36.43,67.63,42,66.64s11-1.72,10.6-2.58-3.77-3.43-7.51-6.62c-.83-.68-9.82-9.09-10.47-9.23"/><path class="cls-2" d="M38.24,48.25A164.05,164.05,0,0,0,57.73,65.64c4.16,2.78,5.67,3.09,5.22.79a13.73,13.73,0,0,0-2.51-4.67c-.2-.54,4.47-8.88,7.76-15.81s5.59-11.63,4.22-16-9-24.7-9.61-25.66-1-.62-3.7,4.87c-5.46,11.39-10.67,21.68-17,32.32-2.09,3.6-3.84,6.59-3.88,6.86"/><path class="cls-3" d="M38.93,44.16C40.68,39,51.28,7.31,52.45,4.29,55-2.06,55-.82,56.64,4.46a14.21,14.21,0,0,1,1.09,4.67C57.43,10.09,44,36.1,42,40s-3,5.66-3,4.19"/><path class="cls-4" d="M37.56,42.17A20.55,20.55,0,0,1,35.09,33a26.78,26.78,0,0,1,1.1-6.08v-.24c.24-1-.21-1.23-.38-1.27a1,1,0,0,0-1,.72,22.7,22.7,0,0,0-1.17,9,29,29,0,0,0,2.78,8c.24.45.52.48.65.48a.58.58,0,0,0,.55-.31A1.13,1.13,0,0,0,37.56,42.17Z"/><path class="cls-4" d="M31.79,42A40.55,40.55,0,0,1,21.5,33.42a15.16,15.16,0,0,1-2.4-9.91,3.84,3.84,0,0,0,0-.48c0-1.1,0-1.58-.55-1.68s-.52,0-.79.65a14.68,14.68,0,0,0,0,4.77c.72,7.13,4.39,10.29,9.5,13.89A27,27,0,0,0,32,43.55h0a.57.57,0,0,0,.55-.35C32.65,43,32.65,42.58,31.79,42Z"/></g></g></svg>