<svg id="Calque_1" width="159px" height="59px" data-name="Calque 1" xmlns="http://www.w3.org/2000/svg" xmlns:xlink="http://www.w3.org/1999/xlink" viewBox="0 0 158.94 59.39"><defs><style>.cls-1{fill:#ee731b;}.cls-1,.cls-2,.cls-3,.cls-4{fill-rule:evenodd;}.cls-2,.cls-6{fill:#139980;}.cls-3{fill:url(#linear-gradient);}.cls-4,.cls-5{fill:#e62f53;}</style><linearGradient id="linear-gradient" x1="135.13" y1="162.17" x2="133.66" y2="152.45" gradientUnits="userSpaceOnUse"><stop offset="0" stop-color="#e52f52"/><stop offset="0.47" stop-color="#e62f53"/></linearGradient></defs><title>Logo</title><path class="cls-1" d="M126.69,165.72c-.51-.12-1.4.07-3.75.52-3.94.76-13.81,2.5-14.41,2.73s.38.68,3.33,2.2,9.41,5.16,10.7,5.46,5.08-.61,8-1.14,5.84-.91,5.61-1.36c-.1-.22-2-1.76-4-3.51-.42-.36-5.2-4.82-5.54-4.9" transform="translate(-108.36 -140.18)"/><path class="cls-2" d="M128.57,165.72c-.07.42,8.12,7.74,10.32,9.22s3,1.63,2.77.42a7.7,7.7,0,0,0-1.33-2.47c-.11-.3,2.35-4.7,4.1-8.38s2.95-6.22,2.23-8.46-4.78-13.08-5.08-13.57-.57-.35-2,2.57c-2.88,6-5.65,11.39-9,17.12-1.12,1.91-2,3.49-2.05,3.55" transform="translate(-108.36 -140.18)"/><path class="cls-3" d="M128.93,163.57c.93-2.73,6.54-19.53,7.15-21.13,1.29-3.35,1.43-2.69,2.22.09.21.74.74,2,.58,2.48s-7.27,14.28-8.35,16.34-1.6,3-1.6,2.22" transform="translate(-108.36 -140.18)"/><path class="cls-4" d="M127.32,154.25c.13-.59-.26-.57-.41-.18a12,12,0,0,0-.59,4.67,14.52,14.52,0,0,0,1.44,4.17c.21.39.49,0,.28-.31s-1.52-3.14-1.34-5a16.71,16.71,0,0,1,.62-3.38" transform="translate(-108.36 -140.18)"/><path class="cls-5" d="M128,163.26a.41.41,0,0,1-.35-.26,15.39,15.39,0,0,1-1.47-4.24,12.31,12.31,0,0,1,.61-4.76c.11-.28.35-.44.55-.38s.32.16.21.67l0,.13a16,16,0,0,0-.59,3.23,11.28,11.28,0,0,0,1.32,4.86.6.6,0,0,1,0,.58A.32.32,0,0,1,128,163.26Zm-.79-9.26a.75.75,0,0,0-.08.14,11.62,11.62,0,0,0-.58,4.57,15.34,15.34,0,0,0,1.42,4.12h0a.3.3,0,0,0,0-.14c-.17-.27-1.56-3.16-1.37-5.09a16.62,16.62,0,0,1,.59-3.29l0-.11A.59.59,0,0,0,127.16,154Z" transform="translate(-108.36 -140.18)"/><path class="cls-4" d="M125.05,162.6c.47.29.39.52.13.47a15.65,15.65,0,0,1-2.41-1.5c-2.82-2-4.59-3.62-5-7.24a8.23,8.23,0,0,1,0-2.42c.16-.36.39-.42.36.46A8.69,8.69,0,0,0,119.5,158c1.1,1.61,3.93,3.62,5.55,4.61" transform="translate(-108.36 -140.18)"/><path class="cls-5" d="M125.25,163.26h-.1a15.41,15.41,0,0,1-2.49-1.53c-2.7-1.93-4.65-3.59-5-7.37a7.87,7.87,0,0,1,.06-2.52c.15-.33.31-.37.43-.35s.3.32.29.9c0,.06,0,.14,0,.24a8.19,8.19,0,0,0,1.26,5.27c1.12,1.63,4.08,3.69,5.5,4.56h0c.45.28.45.51.4.62A.29.29,0,0,1,125.25,163.26ZM118,152a8.15,8.15,0,0,0,0,2.33c.36,3.64,2.16,5.18,4.87,7.11a24.28,24.28,0,0,0,2.07,1.33c-1.55-.95-4.45-3-5.59-4.66A8.6,8.6,0,0,1,118,152.6c0-.09,0-.17,0-.23S118,152.07,118,152Z" transform="translate(-108.36 -140.18)"/><path class="cls-6" d="M157.32,162.86a2.9,2.9,0,1,1,2.9-2.9A2.91,2.91,0,0,1,157.32,162.86Zm-2.12,3.52h4.25v22.34H155.2Z" transform="translate(-108.36 -140.18)"/><path class="cls-6" d="M164.65,177.46a11.28,11.28,0,1,1,11.26,11.26,11.13,11.13,0,0,1-7-2.44v13.29h-4.25Zm18.31,0a7,7,0,1,0-14.06,0v0a7,7,0,1,0,14.06,0Z" transform="translate(-108.36 -140.18)"/><path class="cls-6" d="M212.17,177.46a11.22,11.22,0,1,1-2-6.51l-12.61,12.66a7.17,7.17,0,0,0,3.25.81,7,7,0,0,0,7.1-7Zm-17.59,3.12,9.5-9.5a7.42,7.42,0,0,0-3.26-.76,7,7,0,0,0-7,7.14A7.39,7.39,0,0,0,194.58,180.58Z" transform="translate(-108.36 -140.18)"/><path class="cls-6" d="M236.63,154.72v22.65a11.3,11.3,0,1,1-11.3-11.26,11.12,11.12,0,0,1,7,2.49V154.72Zm-4.25,22.65v-.05a7.13,7.13,0,1,0,0,.05Z" transform="translate(-108.36 -140.18)"/><path class="cls-6" d="M244,162.86a2.9,2.9,0,1,1,2.9-2.9A2.91,2.91,0,0,1,244,162.86Zm-2.12,3.52h4.25v22.34h-4.25Z" transform="translate(-108.36 -140.18)"/><path class="cls-6" d="M248.94,188.76v-4.25a7.05,7.05,0,0,0,7.05-7,11.28,11.28,0,0,1,11.3-11.3v4.25a7.06,7.06,0,0,0-7.05,7.05A11.3,11.3,0,0,1,248.94,188.76Z" transform="translate(-108.36 -140.18)"/></svg>