<svg id="Calque_1" data-name="Calque 1" xmlns="http://www.w3.org/2000/svg" viewBox="0 0 199.44 74.52"><defs><style>.cls-1,.cls-2{fill:#fff;}.cls-1{fill-rule:evenodd;}</style></defs><title>logo-blanc</title><path class="cls-1" d="M575.47,165.42c-.62-.15-1.75.08-4.7.65-4.95,1-17.32,3.14-18.08,3.43s.47.85,4.19,2.76,11.8,6.47,13.42,6.85,6.37-.76,10.09-1.43,7.33-1.14,7-1.71c-.13-.27-2.5-2.21-5-4.39-.53-.46-6.52-6.05-7-6.16" transform="translate(-552.47 -133.37)"/><path class="cls-1" d="M577.84,165.43c-.09.52,10.19,9.71,12.95,11.56s3.76,2,3.47.53-1.52-2.72-1.66-3.1,2.95-5.9,5.14-10.51,3.71-7.81,2.8-10.62-6-16.42-6.37-17-.72-.42-2.48,3.24c-3.62,7.53-7.08,14.29-11.28,21.48-1.4,2.4-2.55,4.38-2.57,4.46" transform="translate(-552.47 -133.37)"/><path class="cls-1" d="M578.29,162.72c1.17-3.42,8.21-24.5,9-26.51,1.62-4.2,1.79-3.38,2.78.11.27.93.93,2.47.74,3.12s-9.12,17.91-10.48,20.5-2,3.75-2,2.78" transform="translate(-552.47 -133.37)"/><path class="cls-1" d="M576.27,151c.16-.74-.32-.71-.52-.23a15.39,15.39,0,0,0-.74,5.86,18.73,18.73,0,0,0,1.81,5.24c.26.48.62,0,.36-.39s-1.91-3.94-1.68-6.24a20.57,20.57,0,0,1,.77-4.24" transform="translate(-552.47 -133.37)"/><path class="cls-2" d="M577.07,162.34a.53.53,0,0,1-.45-.33,19.1,19.1,0,0,1-1.84-5.32,15.42,15.42,0,0,1,.76-6c.14-.36.44-.56.69-.48s.41.2.27.84l0,.16a21.25,21.25,0,0,0-.73,4c-.21,2.14,1.32,5.56,1.65,6.1a.72.72,0,0,1,0,.73A.41.41,0,0,1,577.07,162.34Zm-1-11.62a.5.5,0,0,0-.1.17,14.63,14.63,0,0,0-.73,5.74,18.68,18.68,0,0,0,1.79,5.16v0a.38.38,0,0,0-.06-.18c-.21-.34-2-4-1.71-6.38a20.35,20.35,0,0,1,.74-4.13l0-.14A.91.91,0,0,0,576.07,150.72Z" transform="translate(-552.47 -133.37)"/><path class="cls-1" d="M573.42,161.51c.59.36.49.65.17.58a18.87,18.87,0,0,1-3-1.87c-3.54-2.52-5.76-4.54-6.22-9.09a10,10,0,0,1,.06-3c.19-.45.49-.52.45.58a10.89,10.89,0,0,0,1.61,7.05c1.37,2,4.92,4.54,7,5.79" transform="translate(-552.47 -133.37)"/><path class="cls-2" d="M573.67,162.33h-.13a19,19,0,0,1-3.11-1.92c-3.4-2.42-5.84-4.5-6.32-9.25a9.94,9.94,0,0,1,.08-3.15c.18-.42.39-.47.54-.44s.38.39.35,1.12c0,.08,0,.18,0,.31a10.18,10.18,0,0,0,1.58,6.6c1.4,2,5.12,4.64,6.9,5.72h0c.57.35.56.65.5.79A.38.38,0,0,1,573.67,162.33Zm-9.06-14.15a10,10,0,0,0,0,2.92c.46,4.57,2.72,6.5,6.12,8.93a30.33,30.33,0,0,0,2.59,1.66c-1.94-1.18-5.58-3.74-7-5.84a10.86,10.86,0,0,1-1.66-6.89c0-.12,0-.22,0-.3A3.35,3.35,0,0,0,564.61,148.18Z" transform="translate(-552.47 -133.37)"/><path class="cls-2" d="M613.92,161.83a3.63,3.63,0,1,1,3.63-3.63A3.66,3.66,0,0,1,613.92,161.83Zm-2.67,4.42h5.34v28h-5.34Z" transform="translate(-552.47 -133.37)"/><path class="cls-2" d="M623.11,180.15a14.16,14.16,0,1,1,14.13,14.13,13.88,13.88,0,0,1-8.79-3.06V207.9h-5.34Zm23,0a8.87,8.87,0,0,0-8.85-8.85,8.78,8.78,0,0,0-8.79,8.85v.06a8.82,8.82,0,0,0,17.64-.06Z" transform="translate(-552.47 -133.37)"/><path class="cls-2" d="M682.74,180.15a14.06,14.06,0,1,1-2.49-8.17l-15.83,15.89a9.12,9.12,0,0,0,4.08,1,8.77,8.77,0,0,0,8.91-8.74Zm-22.06,3.92,11.91-11.92a9.34,9.34,0,0,0-4.09-1,8.76,8.76,0,0,0-8.73,9A9.17,9.17,0,0,0,660.68,184.07Z" transform="translate(-552.47 -133.37)"/><path class="cls-2" d="M713.44,151.62V180a14.22,14.22,0,1,1-5.33-11V151.62ZM708.11,180V180a8.94,8.94,0,1,0,0,.06Z" transform="translate(-552.47 -133.37)"/><path class="cls-2" d="M722.64,161.83a3.63,3.63,0,1,1,3.63-3.63A3.66,3.66,0,0,1,722.64,161.83ZM720,166.25h5.33v28H720Z" transform="translate(-552.47 -133.37)"/><path class="cls-2" d="M728.88,194.34V189a8.86,8.86,0,0,0,8.85-8.85A14.15,14.15,0,0,1,751.91,166v5.33a8.87,8.87,0,0,0-8.85,8.85A14.19,14.19,0,0,1,728.88,194.34Z" transform="translate(-552.47 -133.37)"/></svg>